<?xml version="1.0" standalone="no"?>
<!DOCTYPE svg PUBLIC "-//W3C//DTD SVG 20010904//EN"
 "http://www.w3.org/TR/2001/REC-SVG-20010904/DTD/svg10.dtd">
<svg version="1.0" xmlns="http://www.w3.org/2000/svg"
 width="600.000000pt" height="600.000000pt" viewBox="0 0 600.000000 600.000000"
 preserveAspectRatio="xMidYMid meet">
<g transform="translate(0.000000,600.000000) scale(0.100000,-0.100000)"
fill="#000000" stroke="none">
<path d="M2941 4961 c-24 -6 -24 -7 15 -37 54 -43 76 -52 34 -15 -19 17 -39
31 -44 31 -5 0 -1 7 10 15 21 16 20 16 -15 6z"/>
<path d="M3055 4965 c-5 -2 -28 -6 -50 -10 l-39 -7 42 -35 c23 -19 42 -41 42
-49 0 -8 5 -14 10 -14 6 0 10 -5 10 -11 0 -6 11 -25 24 -42 13 -18 27 -42 30
-54 4 -13 10 -22 14 -20 4 1 9 -2 11 -8 3 -5 13 -19 23 -29 11 -12 16 -28 12
-40 -4 -15 -3 -17 4 -8 7 11 10 10 16 -3 9 -24 8 -27 -6 -19 -7 4 -8 3 -4 -5
4 -6 11 -9 16 -6 5 3 21 -17 35 -45 14 -27 29 -50 34 -50 4 0 16 -18 26 -40
10 -22 22 -40 26 -40 5 0 7 -13 5 -30 -2 -22 1 -30 12 -30 8 0 12 3 8 7 -3 4
4 13 16 20 16 8 18 12 7 13 -9 0 -21 11 -27 25 -15 33 -15 38 1 29 8 -5 7 0
-3 15 -8 12 -18 21 -21 19 -12 -7 -41 34 -115 163 -84 148 -133 219 -169 248
l-24 18 52 7 c141 17 174 7 326 -93 120 -79 228 -130 300 -142 70 -11 191 -12
191 -1 0 5 -13 7 -30 4 -19 -3 -30 0 -30 7 0 7 4 10 8 7 5 -3 21 2 36 10 16 7
32 14 38 14 5 0 18 9 30 20 12 11 30 20 40 20 11 0 17 4 13 9 -3 6 4 15 16 22
l22 11 -21 -35 c-25 -39 -29 -62 -6 -32 73 97 138 127 209 96 52 -23 105 -83
105 -120 0 -34 -51 -114 -83 -128 -50 -23 -130 -25 -232 -5 -128 26 -129 26
-135 33 -9 11 -66 18 -79 10 -13 -8 46 -34 107 -46 18 -4 30 -10 27 -15 -3 -5
7 -9 22 -9 16 0 39 -3 53 -6 97 -25 220 -33 220 -13 0 4 5 8 11 8 6 0 22 14
36 30 13 17 32 30 41 30 15 0 15 2 2 10 -8 5 -10 10 -5 10 6 0 19 14 29 31 22
37 17 74 -19 141 -18 34 -21 48 -12 52 8 3 7 5 -3 4 -20 -2 -70 23 -70 35 0 5
-6 4 -14 -2 -8 -7 -16 -8 -18 -3 -1 5 -19 12 -38 16 -27 5 -31 4 -15 -4 18 -9
17 -10 -7 -7 -16 3 -28 0 -28 -4 0 -5 -4 -9 -9 -9 -9 0 -118 -63 -138 -79 -6
-6 -27 -19 -45 -30 -18 -10 -53 -30 -76 -44 -28 -15 -39 -27 -30 -30 7 -3 -4
-6 -24 -6 -20 -1 -49 4 -65 11 -15 6 -31 11 -35 10 -5 -1 -8 2 -8 7 0 5 -10 7
-22 3 -14 -3 -19 -1 -14 6 4 8 2 10 -8 6 -9 -3 -26 7 -42 25 -15 17 -44 36
-64 41 -19 5 -65 28 -100 50 -87 55 -154 85 -218 99 -50 10 -134 14 -157 6z
m530 -195 c3 -6 -1 -7 -9 -4 -18 7 -21 14 -7 14 6 0 13 -4 16 -10z"/>
<path d="M4020 4930 c0 -5 5 -10 10 -10 6 0 10 5 10 10 0 6 -4 10 -10 10 -5 0
-10 -4 -10 -10z"/>
<path d="M3972 4918 c-7 -7 -12 -9 -12 -6 0 4 -35 -10 -77 -31 -43 -21 -99
-46 -125 -56 -27 -10 -48 -19 -48 -20 0 -1 18 -2 39 -1 22 0 39 4 38 8 -3 12
165 89 199 90 27 1 30 3 19 15 -17 16 -18 16 -33 1z"/>
<path d="M2809 4858 c-92 -116 -127 -242 -95 -352 9 -31 48 -107 86 -168 101
-160 114 -199 114 -333 0 -88 -5 -122 -22 -169 -30 -81 -103 -205 -180 -306
-115 -150 -157 -277 -134 -403 19 -102 75 -199 149 -257 10 -8 26 -21 34 -27
23 -19 131 -65 124 -53 -3 5 -2 10 4 10 5 0 11 -5 13 -10 2 -6 39 -12 83 -15
50 -3 75 -1 66 5 -12 7 -9 10 12 15 15 4 38 5 52 3 15 -3 22 -1 18 5 -4 6 0 8
10 4 25 -10 96 31 154 89 150 149 165 382 37 566 -116 169 -141 209 -171 280
-65 149 -65 272 0 390 l31 56 -93 164 c-151 267 -200 373 -219 471 -9 48 -20
87 -24 87 -3 0 -25 -24 -49 -52z m27 -6 c-13 -21 33 -139 115 -298 49 -95 89
-182 89 -194 0 -11 7 -23 15 -26 8 -4 15 -11 15 -18 0 -6 7 -24 15 -39 17 -34
22 -137 7 -192 -5 -22 -13 -57 -16 -77 -5 -28 -12 -38 -25 -38 -23 0 -41 -21
-45 -52 -1 -13 -5 -29 -9 -35 -7 -12 -2 -150 11 -291 4 -46 4 -86 1 -88 -20
-12 -31 -171 -13 -190 13 -15 56 -24 114 -25 25 -1 60 -6 78 -12 26 -9 35 -8
47 4 21 21 36 117 22 149 -5 14 -9 31 -8 38 1 6 -3 12 -9 12 -5 0 -10 7 -10
17 0 9 -3 13 -6 10 -9 -9 -58 94 -55 113 2 8 -1 11 -5 7 -5 -4 -16 16 -25 45
-10 29 -16 54 -15 56 2 1 18 -25 36 -60 47 -91 100 -186 132 -237 26 -42 62
-139 71 -191 4 -22 4 -21 6 6 2 56 -39 154 -121 287 -27 43 -48 80 -46 82 5 5
140 -201 160 -245 23 -50 39 -158 32 -212 -3 -23 -7 -53 -9 -65 -5 -37 -56
-141 -81 -164 -13 -12 -24 -19 -24 -14 0 4 -8 -1 -18 -13 -10 -11 -37 -30 -60
-42 -23 -12 -45 -26 -48 -31 -7 -12 -24 -12 -24 0 0 5 10 13 22 17 18 5 19 8
6 15 -17 10 -73 -13 -61 -24 3 -4 -8 -7 -25 -7 -16 0 -32 -6 -35 -12 -3 -10
-8 -9 -22 2 -15 12 -17 12 -10 1 7 -12 0 -13 -41 -7 -27 4 -59 8 -71 9 -11 1
-19 5 -16 10 2 4 -3 7 -12 7 -9 0 -13 5 -10 10 6 10 3 11 -46 14 -47 3 -125
85 -163 171 -9 22 -24 53 -33 70 -22 39 -21 174 1 233 8 24 35 72 58 108 33
51 44 61 51 48 6 -10 3 -22 -9 -35 -9 -10 -20 -17 -23 -14 -3 3 -18 -20 -33
-51 -31 -61 -33 -68 -18 -59 13 8 13 3 -4 -31 -22 -43 -31 -130 -16 -139 10
-6 12 -1 8 18 -3 17 0 28 9 31 8 3 12 2 9 -3 -7 -11 12 -27 49 -40 l30 -11
-23 19 c-12 11 -27 21 -33 23 -13 4 -17 103 -6 138 6 19 6 21 -2 10 -8 -11
-11 -11 -11 -2 0 7 7 15 15 18 8 4 12 10 10 15 -3 4 24 42 61 84 36 42 63 79
60 82 -3 4 3 12 14 20 11 8 20 20 20 27 0 8 12 40 26 72 40 89 84 275 85 358
1 60 2 66 9 36 21 -88 -23 -307 -91 -449 -21 -46 -38 -86 -35 -88 2 -3 7 4 10
15 4 11 13 23 20 25 8 3 17 19 21 35 3 16 17 44 31 63 15 21 22 40 18 52 -4
12 -2 17 4 13 10 -6 14 7 37 143 13 74 13 94 0 170 -8 47 -18 97 -21 111 -3
14 -7 36 -9 50 -1 14 -12 41 -24 60 -11 19 -25 45 -30 56 -5 12 -21 33 -35 47
-14 15 -26 33 -26 40 0 8 -7 18 -16 21 -9 3 -14 13 -10 21 3 8 -3 21 -14 28
-11 8 -17 17 -13 21 4 4 2 10 -4 14 -7 4 -19 33 -27 64 -16 62 -12 94 23 170
34 73 44 67 16 -10 -25 -69 -33 -156 -16 -166 9 -6 21 49 21 104 0 52 16 71
25 29 3 -19 15 -53 26 -77 11 -24 17 -47 14 -52 -3 -6 0 -8 7 -5 13 5 38 -36
38 -63 0 -7 4 -11 9 -8 5 4 7 -4 3 -16 -3 -15 -2 -19 7 -14 7 5 17 -5 26 -28
9 -20 20 -36 25 -36 5 0 7 -7 4 -15 -4 -8 -1 -15 5 -15 6 0 17 -12 25 -27 9
-17 16 -22 16 -13 1 10 4 9 10 -5 5 -11 9 -14 9 -7 1 7 -16 39 -38 70 -49 74
-146 252 -162 299 -6 20 -9 59 -6 90 4 35 2 51 -5 47 -6 -4 -6 2 1 15 7 11 14
21 17 21 3 0 3 -4 0 -8z m-85 -359 c14 -45 87 -163 100 -163 5 0 8 -3 7 -7 -5
-14 49 -93 57 -86 4 5 5 3 2 -3 -3 -6 0 -32 8 -59 8 -26 15 -55 14 -64 0 -9
-6 4 -13 29 -7 25 -23 64 -35 88 -20 40 -111 185 -130 208 -8 10 -12 22 -27
77 -10 33 5 17 17 -20z m412 -322 c-21 -15 -61 -121 -69 -182 -4 -31 -10 -46
-15 -38 -4 7 -6 16 -3 20 2 4 9 29 14 56 14 63 14 65 27 89 12 21 12 48 0 60
-4 4 -7 22 -7 41 0 18 -11 61 -25 95 -14 34 -25 64 -25 67 0 3 25 -41 56 -98
30 -57 52 -107 47 -110z m-94 -293 c19 -126 57 -242 118 -357 53 -99 55 -105
51 -167 -2 -35 -6 -66 -9 -69 -4 -3 -19 1 -35 10 -18 9 -57 15 -106 15 -75 0
-76 0 -82 28 -3 15 0 54 6 87 9 39 12 121 10 235 -2 96 -1 203 3 238 10 90 29
81 44 -20z m-257 -276 c-15 -26 -27 -54 -27 -62 0 -8 -6 -14 -13 -12 -8 1 -11
-2 -7 -7 3 -6 -3 -15 -14 -21 -17 -8 -20 -7 -18 9 0 11 4 18 7 16 4 -2 22 22
41 53 18 31 37 59 41 60 5 2 5 9 2 14 -4 7 -2 8 4 4 8 -4 2 -22 -16 -54z m33
-772 c3 -5 2 -10 -4 -10 -5 0 -13 5 -16 10 -3 6 -2 10 4 10 5 0 13 -4 16 -10z"/>
<path d="M2763 3465 c-17 -19 -29 -35 -26 -35 2 0 -2 -7 -9 -15 -7 -8 -17 -20
-23 -27 -19 -24 -35 -84 -34 -124 l1 -39 8 46 c9 52 29 94 74 159 57 81 60 93
9 35z"/>
<path d="M2700 3475 c-7 -9 -10 -18 -7 -21 3 -3 10 4 17 15 13 25 8 27 -10 6z"/>
<path d="M2760 3386 c0 -19 -5 -47 -11 -63 -16 -41 -23 -120 -11 -127 6 -3 8
2 5 13 -3 10 1 22 8 26 8 6 10 4 4 -5 -5 -8 -4 -11 2 -7 6 4 9 22 6 42 -2 19
1 35 6 35 5 0 10 8 9 18 0 9 4 31 9 47 12 35 7 55 -13 55 -9 0 -14 -11 -14
-34z"/>
<path d="M3352 3120 c-7 -36 -14 -71 -14 -77 -1 -7 -5 -13 -9 -13 -4 0 -18
-19 -32 -43 -25 -41 -103 -107 -128 -107 -9 0 -10 -3 -2 -11 8 -8 24 -1 58 25
26 20 50 34 55 31 12 -7 66 92 80 146 6 25 10 61 8 80 -3 29 -5 25 -16 -31z"/>
<path d="M3275 3051 c-3 -12 -11 -21 -16 -21 -5 0 -9 -6 -9 -14 0 -8 -26 -40
-57 -72 -57 -58 -34 -54 31 5 27 25 71 109 62 118 -2 3 -7 -5 -11 -16z"/>
<path d="M2743 2943 c0 -10 12 -28 28 -41 21 -17 27 -19 23 -7 -6 15 -4 15 32
0 22 -10 48 -19 59 -21 l20 -4 -20 9 c-11 5 -15 10 -10 11 6 1 -10 7 -34 15
-24 7 -49 11 -57 8 -10 -4 -12 0 -8 13 4 11 4 16 -1 12 -4 -4 -13 -1 -19 8
-10 13 -12 13 -13 -3z"/>
<path d="M2906 2862 c-3 -6 1 -13 10 -16 23 -9 28 -2 10 13 -8 7 -17 8 -20 3z"/>
<path d="M1875 4866 c-179 -83 -218 -322 -77 -464 82 -81 217 -101 325 -49
223 110 217 421 -10 518 -65 28 -173 26 -238 -5z m203 1 c73 -19 145 -86 169
-157 16 -45 25 -112 14 -106 -5 3 -11 -13 -15 -35 -4 -23 -14 -55 -22 -71 -9
-17 -11 -27 -5 -24 20 13 11 -11 -11 -30 -19 -15 -20 -16 -9 -1 7 9 9 17 3 17
-5 0 -15 -13 -21 -30 -5 -16 -13 -30 -16 -30 -3 0 -3 5 0 10 3 6 1 10 -5 10
-6 0 -13 -7 -16 -15 -4 -8 -10 -13 -14 -10 -12 7 -61 -16 -55 -26 3 -4 -3 -6
-12 -4 -10 1 -28 -3 -40 -11 -14 -9 -24 -10 -28 -4 -3 6 -25 8 -48 5 -36 -4
-37 -3 -12 4 28 8 27 9 -16 10 -39 1 -53 7 -92 41 -25 23 -58 65 -73 96 -24
48 -26 63 -22 128 3 44 11 80 19 89 31 33 53 62 49 67 -8 11 81 69 97 63 12
-5 14 -3 8 7 -5 7 -4 11 1 8 5 -3 18 -2 29 3 21 9 102 6 143 -4z"/>
<path d="M1980 4859 c-24 -7 -24 -7 5 -9 17 0 50 -3 75 -5 51 -5 45 0 -15 13
-22 5 -51 5 -65 1z"/>
<path d="M1914 4849 c-3 -6 -12 -8 -20 -5 -8 3 -13 1 -11 -3 1 -5 -13 -20 -32
-33 -18 -12 -48 -42 -65 -66 -26 -37 -31 -54 -34 -118 -5 -84 3 -128 20 -118
7 5 9 2 6 -8 -4 -8 2 -22 13 -31 13 -12 19 -13 20 -4 1 6 5 1 10 -13 7 -23 8
-24 6 -2 -1 12 -5 21 -10 20 -4 -2 -15 11 -23 27 -18 32 -35 105 -25 103 18
-2 31 3 31 12 0 6 -6 9 -12 8 -7 -2 -14 8 -16 22 -2 20 -1 22 8 10 9 -12 10
-10 5 8 -4 15 2 38 21 70 35 59 42 66 98 96 30 16 40 26 31 30 -8 3 -17 1 -21
-5z"/>
<path d="M2106 4832 c-3 -4 4 -9 15 -9 23 -2 25 3 4 10 -8 4 -16 3 -19 -1z"/>
<path d="M2025 4810 c-34 -4 -41 -10 -53 -42 -12 -30 -12 -41 0 -64 7 -16 16
-26 19 -24 3 3 13 -1 22 -8 9 -8 21 -11 26 -8 5 4 13 1 16 -5 4 -5 13 -8 19
-6 7 3 28 -2 46 -11 31 -15 33 -15 46 3 17 24 17 73 0 104 -20 35 -93 67 -141
61z m71 -34 c56 -26 64 -38 64 -97 0 -42 -5 -47 -30 -24 -8 8 -44 21 -79 29
-35 8 -65 17 -68 19 -2 3 -1 26 2 51 7 41 10 46 34 46 14 0 49 -11 77 -24z"/>
<path d="M2143 4813 c-9 -3 -8 -9 2 -21 8 -9 22 -27 32 -39 11 -15 23 -20 30
-15 10 6 10 12 -3 28 -14 18 -15 18 -9 -6 6 -24 6 -24 -10 -5 -8 11 -13 25
-11 31 6 15 -15 33 -31 27z"/>
<path d="M1823 4691 c-16 -48 -18 -61 -7 -65 17 -7 52 100 38 114 -7 7 -17
-10 -31 -49z"/>
<path d="M2210 4713 c0 -11 7 -26 15 -33 20 -17 20 7 0 34 -15 19 -15 19 -15
-1z"/>
<path d="M2216 4588 c-5 -16 -11 -28 -15 -28 -4 0 -7 -8 -7 -17 0 -10 -4 -29
-8 -43 -8 -21 -7 -22 6 -10 21 23 40 75 36 102 -4 22 -5 22 -12 -4z"/>
<path d="M2125 4468 c4 -12 -77 -58 -103 -58 -6 0 -13 -4 -16 -9 -9 -14 66 5
101 25 33 19 42 38 23 49 -5 3 -8 0 -5 -7z"/>
<path d="M1850 4430 c8 -5 23 -10 33 -10 9 0 17 -4 17 -9 0 -11 59 -36 67 -27
3 3 -1 6 -10 6 -9 0 -17 3 -17 8 0 4 -18 15 -40 25 -44 19 -75 23 -50 7z"/>
<path d="M4320 4842 c0 -5 12 -19 27 -33 l27 -24 -23 33 c-23 32 -31 39 -31
24z"/>
<path d="M3334 4815 c33 -31 116 -88 116 -80 0 3 19 -7 43 -23 56 -39 97 -50
186 -51 45 0 77 -5 81 -12 5 -8 9 -8 14 0 7 11 7 11 -124 37 -90 17 -216 73
-281 125 -45 35 -72 39 -35 4z"/>
<path d="M3177 4773 c3 -7 6 -13 8 -13 2 0 5 6 8 13 3 8 -1 14 -8 14 -7 0 -11
-6 -8 -14z"/>
<path d="M3940 4720 c-13 -8 -13 -10 2 -10 9 0 20 5 23 10 8 13 -5 13 -25 0z"/>
<path d="M3905 4711 c-3 -5 -1 -12 5 -16 5 -3 10 1 10 9 0 18 -6 21 -15 7z"/>
<path d="M4373 4610 c1 -105 -24 -170 -88 -229 -57 -52 -104 -71 -192 -78 -83
-7 -124 5 -231 68 -64 38 -139 66 -149 56 -2 -3 18 -12 45 -21 27 -9 69 -29
94 -45 112 -71 240 -90 346 -52 56 21 68 28 115 70 70 63 110 219 74 287 -15
28 -15 26 -14 -56z"/>
<path d="M3570 4650 c8 -5 20 -10 25 -10 6 0 3 5 -5 10 -8 5 -19 10 -25 10 -5
0 -3 -5 5 -10z"/>
<path d="M3530 4646 c0 -2 7 -7 16 -10 8 -3 12 -2 9 4 -6 10 -25 14 -25 6z"/>
<path d="M3515 4620 c-3 -5 -1 -10 4 -10 6 0 11 5 11 10 0 6 -2 10 -4 10 -3 0
-8 -4 -11 -10z"/>
<path d="M3210 4581 c0 -6 4 -13 10 -16 6 -3 7 1 4 9 -7 18 -14 21 -14 7z"/>
<path d="M3231 4548 c-1 -4 13 -42 29 -85 17 -43 33 -95 36 -115 4 -21 11 -38
17 -38 5 0 39 16 74 36 87 48 196 84 257 84 28 0 58 5 66 11 26 18 -120 3
-191 -21 -35 -12 -95 -39 -133 -61 -38 -21 -70 -38 -71 -37 -1 2 -7 28 -14 58
-11 49 -68 186 -70 168z"/>
<path d="M3568 4503 c12 -2 32 -2 45 0 12 2 2 4 -23 4 -25 0 -35 -2 -22 -4z"/>
<path d="M3488 4483 c-37 -6 -36 -18 0 -18 16 0 29 5 29 13 0 6 -1 11 -1 11
-1 -1 -13 -4 -28 -6z"/>
<path d="M3430 4446 c0 -9 7 -12 21 -9 16 4 17 8 7 14 -19 13 -28 11 -28 -5z"/>
<path d="M1474 2119 c-119 -37 -202 -115 -244 -226 -82 -220 26 -468 230 -530
67 -20 206 -20 271 0 110 34 196 115 235 222 27 76 25 242 -5 317 -71 182
-291 280 -487 217z m209 -10 c20 -5 37 -14 37 -19 0 -6 9 -10 20 -10 59 0 155
-83 191 -165 30 -67 39 -232 16 -299 -20 -59 -75 -139 -92 -132 -7 2 -12 -2
-11 -11 2 -27 -86 -72 -171 -89 -86 -17 -176 -8 -243 24 -46 22 -162 141 -156
159 3 8 1 11 -4 8 -6 -3 -10 2 -10 12 0 11 -5 24 -10 29 -15 15 -30 74 -19 74
5 0 9 -11 9 -24 0 -14 5 -28 11 -32 7 -4 9 0 6 12 -3 11 -9 48 -12 83 -6 49
-4 62 5 56 9 -5 10 -1 5 15 -5 15 -4 20 4 16 7 -5 9 -1 5 9 -10 25 26 97 45
90 12 -5 13 -3 4 6 -13 13 -10 18 45 75 32 32 61 47 46 22 -4 -7 -3 -8 5 -4 6
4 9 11 6 16 -10 15 125 70 171 70 12 0 29 -6 36 -13 7 -8 19 -12 26 -9 6 2 12
-1 12 -6 0 -6 14 -13 30 -17 17 -4 40 -17 52 -28 11 -12 17 -15 13 -7 -6 11
-3 10 12 -2 11 -10 24 -18 30 -18 13 0 63 -57 56 -64 -4 -3 1 -6 10 -6 18 0
56 -74 63 -125 2 -11 8 -40 13 -65 9 -40 10 -37 5 29 -6 96 -34 160 -95 215
-47 43 -143 95 -177 97 -11 1 -9 4 8 10 19 7 16 7 -13 3 -26 -3 -37 -2 -32 5
11 18 -77 13 -147 -9 -63 -19 -134 -63 -171 -104 -37 -43 -76 -141 -85 -216
-9 -68 -10 -70 -11 -25 -1 75 25 171 61 221 82 114 267 180 401 143z m228
-607 c-5 -10 -18 -25 -27 -33 -11 -9 -9 -2 6 19 26 35 36 42 21 14z"/>
<path d="M1545 2015 c-67 -15 -86 -27 -132 -79 -69 -78 -93 -214 -57 -319 20
-60 95 -129 159 -147 87 -24 198 4 257 67 75 79 96 262 40 352 -61 100 -166
149 -267 126z m157 -46 c84 -43 122 -112 122 -224 1 -85 -11 -128 -51 -183
-51 -69 -166 -99 -266 -67 -130 41 -184 216 -114 369 54 118 191 165 309 105z"/>
<path d="M1336 1869 c-8 -12 -12 -28 -9 -35 6 -17 15 -18 11 -1 -1 6 3 22 10
35 16 28 8 29 -12 1z"/>
<path d="M1318 1787 c-3 -19 -2 -25 4 -19 6 6 8 18 6 28 -3 14 -5 12 -10 -9z"/>
<path d="M1307 1744 c-4 -4 -7 -14 -7 -23 0 -11 3 -12 11 -4 6 6 10 16 7 23
-2 6 -7 8 -11 4z"/>
<path d="M1850 1671 c-16 -84 -37 -122 -98 -168 -68 -52 -150 -69 -237 -48
-33 7 -64 11 -70 8 -5 -4 -7 -3 -3 2 4 4 -7 19 -23 33 -42 34 -76 91 -85 138
-11 62 -22 73 -19 19 3 -56 10 -78 38 -118 10 -15 17 -34 14 -41 -3 -7 1 -13
9 -14 8 -1 21 -3 28 -4 8 -1 14 -5 13 -10 -4 -17 77 -38 145 -38 37 0 89 7
115 16 26 9 53 17 59 18 27 4 144 136 119 136 -3 0 2 17 11 39 11 28 13 48 6
72 -8 33 -9 31 -22 -40z"/>
<path d="M1925 1639 c-4 -6 -5 -12 -2 -15 2 -3 7 2 10 11 7 17 1 20 -8 4z"/>
<path d="M2922 2130 c-65 -14 -142 -60 -170 -103 -48 -73 -40 -175 21 -243 41
-48 89 -70 213 -100 122 -29 139 -38 155 -76 16 -39 -3 -82 -46 -102 -67 -32
-228 -13 -288 34 l-25 20 -36 -56 c-19 -32 -33 -61 -29 -67 12 -20 129 -66
196 -78 171 -28 320 21 373 123 26 51 31 106 13 159 -29 85 -97 133 -238 169
-150 38 -202 81 -165 137 39 60 171 69 263 17 l46 -26 38 42 c20 24 37 49 37
56 0 16 -68 57 -130 79 -55 19 -171 27 -228 15z m268 -57 c88 -43 72 -60 -18
-20 -109 49 -208 52 -306 12 -14 -6 -17 -5 -12 3 4 7 3 12 -3 12 -5 0 -13 -4
-16 -10 -3 -5 -1 -10 5 -10 6 0 8 -4 5 -10 -3 -5 -11 -10 -16 -10 -6 0 -7 5
-4 10 12 19 -12 10 -32 -12 -27 -30 -45 -65 -54 -108 -7 -31 -8 -30 -5 12 2
33 12 59 31 84 32 42 100 76 136 68 19 -5 21 -4 9 6 -13 9 -12 11 5 6 11 -2
40 -1 65 3 73 11 130 1 210 -36z m-135 -9 c28 -3 53 -11 57 -18 4 -6 13 -11
20 -11 21 0 88 -26 88 -33 0 -4 -4 -13 -9 -20 -7 -11 -16 -10 -51 8 -52 27
-163 37 -213 21 -42 -14 -87 -63 -87 -94 1 -28 36 -70 75 -90 17 -8 68 -25
115 -37 47 -13 107 -34 133 -48 78 -42 122 -141 96 -220 -14 -45 -25 -59 -25
-32 0 11 4 20 8 20 17 0 8 101 -12 140 -27 54 -81 87 -187 116 -145 39 -170
52 -203 107 -14 23 -19 25 -24 12 -4 -12 8 -31 39 -63 25 -25 45 -42 45 -39 0
3 21 -3 46 -13 25 -11 58 -22 72 -25 61 -10 123 -34 151 -58 17 -14 27 -28 24
-31 -4 -3 -1 -6 5 -6 7 0 12 -7 12 -15 0 -8 6 -15 14 -15 11 0 13 -12 11 -52
-6 -87 -10 -117 -14 -113 -2 2 -18 -6 -35 -19 -89 -68 -275 -76 -408 -19 -23
10 -35 20 -31 29 3 8 10 11 16 7 6 -4 8 0 4 11 -6 16 -5 16 15 1 13 -8 31 -15
41 -15 12 0 16 -4 11 -12 -5 -10 -4 -10 5 -2 8 8 25 9 49 3 59 -14 146 -11
168 6 23 17 38 19 28 4 -3 -6 6 -3 20 6 40 27 16 41 -25 16 -24 -15 -51 -21
-94 -21 -64 0 -170 23 -192 42 -27 22 -11 25 29 5 31 -16 67 -22 134 -25 105
-5 144 9 170 59 8 17 18 29 20 26 3 -3 -2 -19 -10 -36 -17 -31 -7 -51 13 -27
17 20 17 44 2 91 -24 73 -52 92 -176 120 -108 25 -159 49 -201 99 -34 39 -36
44 -31 94 3 29 11 60 17 67 7 8 8 20 4 26 -5 8 -3 9 6 4 10 -6 12 -4 7 7 -8
23 12 39 34 28 12 -7 20 -6 25 2 5 7 3 8 -6 3 -9 -5 -11 -4 -6 3 4 7 16 12 26
12 10 0 22 5 26 11 3 6 22 9 40 7 19 -2 34 0 34 5 0 4 8 6 18 3 9 -3 40 -8 67
-12z m-272 -551 c-11 -30 -35 -63 -45 -63 -5 0 0 12 11 26 12 15 21 33 21 40
0 8 4 14 10 14 5 0 6 -8 3 -17z"/>
<path d="M2806 2022 c-3 -5 1 -9 9 -9 8 0 12 4 9 9 -3 4 -7 8 -9 8 -2 0 -6 -4
-9 -8z"/>
<path d="M2840 1940 c-6 -11 -8 -20 -6 -20 3 0 10 9 16 20 6 11 8 20 6 20 -3
0 -10 -9 -16 -20z"/>
<path d="M4298 2133 l-78 -4 0 -73 c0 -50 4 -75 13 -79 9 -3 12 10 11 47 -1
44 0 45 3 9 5 -56 11 -58 247 -50 274 9 266 27 -12 27 l-223 0 2 38 3 38 219
-4 c148 -2 217 1 212 8 -4 6 -85 10 -225 10 -135 0 -221 4 -225 10 -4 7 79 10
241 10 212 0 245 -2 235 -14 -17 -21 -12 -136 6 -129 9 4 13 27 13 84 l0 79
-182 -2 c-101 -1 -218 -4 -260 -5z"/>
<path d="M4870 2061 l0 -81 258 2 257 3 -252 2 c-248 3 -251 4 -246 24 3 11 9
16 12 11 7 -11 475 -21 486 -11 8 8 -5 39 -17 39 -5 0 -6 -5 -3 -10 7 -12
-258 -8 -305 4 -21 5 -22 5 -5 -3 17 -8 17 -10 3 -10 -9 -1 -20 4 -23 9 -3 6
-11 10 -16 10 -6 0 -7 -5 -3 -11 4 -8 1 -8 -13 0 -22 11 -63 11 -63 -1 0 -4
-7 -8 -15 -8 -10 0 -15 10 -15 30 l0 30 228 -2 c175 -2 226 -6 225 -15 -2 -7
1 -13 7 -13 6 0 10 9 10 20 0 19 -7 20 -229 20 -216 0 -261 3 -261 19 0 3 117
5 260 3 193 -2 259 -6 254 -14 -10 -16 -5 -111 7 -123 5 -5 9 15 10 55 0 36 2
72 4 80 2 13 -35 15 -276 19 l-279 3 0 -81z m27 -3 c-3 -8 -6 -5 -6 6 -1 11 2
17 5 13 3 -3 4 -12 1 -19z"/>
<path d="M547 2123 c-4 -3 -7 -37 -7 -75 l0 -68 128 0 127 0 0 -311 0 -311 70
0 70 0 3 313 2 314 115 -3 115 -4 0 76 0 76 -308 0 c-170 0 -312 -3 -315 -7z
m603 -28 c-8 -9 -10 -29 -7 -50 l6 -34 -112 -3 -112 -3 0 -311 0 -311 -47 1
c-42 1 -48 4 -48 23 0 12 -4 25 -10 28 -6 4 -10 114 -10 298 0 161 -4 288 -8
282 -4 -6 -58 -10 -125 -10 l-117 0 1 40 c1 35 2 37 9 15 7 -21 8 -22 9 -5 1
20 7 20 248 18 246 -3 298 -7 289 -21 -3 -4 -1 -14 5 -22 6 -11 9 -4 9 23 l0
37 -285 0 c-157 0 -285 4 -285 9 0 5 135 9 301 10 268 1 300 -1 289 -14z"/>
<path d="M899 1718 c0 -150 -2 -283 -5 -295 -2 -13 1 -23 6 -23 6 0 10 106 10
295 0 162 -2 295 -5 295 -3 0 -5 -123 -6 -272z"/>
<path d="M824 1740 c0 -129 2 -182 3 -117 2 64 2 170 0 235 -1 64 -3 11 -3
-118z"/>
<path d="M822 1470 c0 -19 2 -27 5 -17 2 9 2 25 0 35 -3 9 -5 1 -5 -18z"/>
<path d="M2090 1745 l0 -385 270 0 269 0 -2 68 -2 67 -187 3 -188 2 0 98 0 97
160 -3 160 -3 0 66 0 65 -160 0 -160 0 0 75 c0 41 1 78 3 81 1 3 82 6 179 7
l178 2 0 73 0 72 -260 0 -260 0 0 -385z m503 354 c-7 -7 -89 -10 -242 -9
l-231 1 -2 -313 -3 -313 -5 323 -5 322 249 0 c178 0 247 -3 239 -11z m-150
-29 l117 0 1 -27 1 -28 7 30 c5 25 8 27 14 12 18 -46 17 -46 -175 -49 l-183
-3 -3 -97 c-3 -118 -16 -111 190 -106 96 2 144 0 142 -7 -3 -7 -55 -9 -142 -8
-75 2 -152 3 -169 3 l-33 0 0 107 c0 126 -7 135 -11 13 -1 -47 -6 -90 -11 -96
-5 -7 -3 -18 6 -27 8 -8 13 -16 11 -18 -2 -2 63 -3 144 -2 150 1 164 -1 174
-27 3 -9 6 -6 6 10 1 20 3 22 11 10 5 -8 10 -23 10 -32 0 -16 -14 -18 -164
-18 l-165 0 1 -107 c1 -63 6 -111 12 -115 6 -4 93 -8 194 -8 117 0 182 -4 182
-10 0 -7 -68 -9 -197 -8 l-198 3 -6 115 c-5 113 -5 114 -9 35 -4 -99 -4 -97
-14 -114 -6 -10 -5 -12 2 -7 7 4 12 1 12 -9 0 -9 -4 -13 -10 -10 -6 3 -7 -1
-4 -9 3 -9 10 -13 15 -10 5 3 9 1 9 -4 0 -6 24 -10 53 -10 247 0 318 -4 313
-18 -3 -8 -3 -14 0 -14 2 0 9 10 14 23 l9 22 0 -22 c1 -12 4 -28 7 -37 5 -13
-23 -15 -245 -15 -145 1 -251 5 -251 10 0 5 5 9 10 9 6 0 9 12 8 28 -1 15 -1
165 0 334 2 277 4 307 19 310 9 2 53 2 97 1 45 -1 134 -2 199 -3z"/>
<path d="M3422 1744 l3 -386 70 0 70 0 3 168 2 169 176 -3 175 -3 -3 -165 -3
-165 73 -1 73 -1 2 376 c2 207 0 381 -3 387 -4 7 -35 10 -76 8 l-69 -3 -3
-153 -3 -152 -167 2 -167 3 -3 153 -3 152 -74 0 -75 0 2 -386z m130 215 c-2
-104 0 -149 7 -144 6 3 11 1 11 -5 0 -7 55 -10 178 -8 l177 3 3 153 3 152 60
0 c52 0 60 -2 55 -16 -3 -9 -6 -173 -6 -365 l0 -349 -45 0 -45 0 0 165 0 165
-200 0 -200 0 -2 -162 -3 -163 -35 1 c-19 1 -38 2 -42 3 -5 1 -8 154 -8 341
l0 340 30 0 30 0 0 -136 c0 -74 4 -143 9 -153 9 -16 28 -18 160 -19 82 -1 153
-2 158 -3 4 -1 16 1 27 6 11 5 21 4 25 -3 4 -7 12 -8 21 -2 21 13 33 12 24 -2
-4 -7 -3 -8 5 -4 6 4 9 11 6 16 -3 4 2 13 11 20 11 10 12 15 3 21 -8 5 -13 50
-16 141 -1 73 0 127 3 120 3 -6 10 -10 15 -6 5 3 18 2 29 -1 16 -5 19 -13 16
-48 -2 -23 0 -109 4 -192 l7 -150 1 206 2 207 -45 4 -45 3 -2 -155 -3 -155
-186 -1 c-103 -1 -193 2 -200 7 -11 6 -14 41 -14 153 l0 144 -42 4 -43 3 -3
-360 -2 -360 -3 368 -2 367 58 0 57 0 -3 -151z m385 -501 c-1 -46 -3 -9 -3 82
0 91 2 128 3 83 2 -46 2 -120 0 -165z"/>
<path d="M3521 1654 c0 -11 3 -14 6 -6 3 7 2 16 -1 19 -3 4 -6 -2 -5 -13z"/>
<path d="M4022 1620 c0 -14 2 -19 5 -12 2 6 2 18 0 25 -3 6 -5 1 -5 -13z"/>
<path d="M3523 1510 c0 -30 2 -43 4 -27 2 15 2 39 0 55 -2 15 -4 2 -4 -28z"/>
<path d="M4692 2050 c0 -14 2 -19 5 -12 2 6 2 18 0 25 -3 6 -5 1 -5 -13z"/>
<path d="M1218 1993 c7 -3 16 -2 19 1 4 3 -2 6 -13 5 -11 0 -14 -3 -6 -6z"/>
<path d="M4222 1590 l3 -230 258 -3 257 -2 0 73 0 72 -190 0 -191 0 3 96 3 96
168 -1 167 -2 0 66 0 65 -240 0 -240 0 2 -230z m450 165 l-4 -45 -159 0 -160
0 3 -112 3 -113 188 -3 c119 -1 186 -6 182 -12 -4 -6 -83 -10 -196 -10 l-189
0 -2 123 -2 122 -6 -120 c-3 -66 -2 -125 3 -132 4 -6 34 -12 65 -13 194 -6
289 -5 305 2 14 7 17 4 17 -27 l0 -35 -245 0 -245 0 2 203 3 202 2 -198 c2
-109 7 -196 11 -193 4 2 7 88 6 190 0 111 3 183 9 179 5 -3 90 -5 189 -4 123
1 185 -2 194 -10 11 -9 14 -7 14 10 0 21 -3 21 -197 21 -111 0 -205 5 -213 10
-10 6 59 10 205 10 l220 0 -3 -45z"/>
<path d="M4873 1590 l2 -230 270 -1 270 0 0 68 0 68 -197 3 -198 2 0 98 0 97
165 -4 165 -3 0 66 0 66 -240 0 -239 0 2 -230z m459 165 l-4 -45 -164 0 -164
0 0 -109 c0 -90 3 -110 16 -115 9 -3 99 -6 201 -6 127 0 184 -3 181 -11 -2 -6
-7 -10 -11 -10 -4 1 -92 1 -197 1 -152 0 -190 3 -190 13 0 8 -10 22 -22 33
l-21 19 18 -27 c9 -16 13 -28 8 -28 -5 0 -10 -6 -10 -13 0 -15 -11 -14 220
-18 115 -2 177 -7 177 -14 0 -5 5 -3 10 5 8 13 10 13 10 -2 0 -9 3 -23 6 -32
5 -13 -25 -15 -240 -16 l-246 -1 0 195 c0 205 -1 198 40 186 3 -1 83 -1 179 0
133 1 176 -2 182 -12 6 -9 9 -6 9 10 l0 22 -202 0 c-114 0 -210 5 -218 10 -10
6 61 10 210 10 l225 0 -3 -45z m-435 -277 c-1 -57 -3 -11 -3 102 0 113 2 159
3 103 2 -57 2 -149 0 -205z"/>
<path d="M2730 1590 c0 -5 7 -7 15 -4 8 4 15 8 15 10 0 2 -7 4 -15 4 -8 0 -15
-4 -15 -10z"/>
<path d="M4258 1303 c12 -2 32 -2 45 0 12 2 2 4 -23 4 -25 0 -35 -2 -22 -4z"/>
<path d="M4418 1303 c12 -2 32 -2 45 0 12 2 2 4 -23 4 -25 0 -35 -2 -22 -4z"/>
</g>
</svg>
